<?xml version="1.0" encoding="UTF-8" standalone="no"?>
<!-- Created with Inkscape (http://www.inkscape.org/) -->

<svg
   xmlns:dc="http://purl.org/dc/elements/1.1/"
   xmlns:cc="http://creativecommons.org/ns#"
   xmlns:rdf="http://www.w3.org/1999/02/22-rdf-syntax-ns#"
   xmlns:svg="http://www.w3.org/2000/svg"
   xmlns="http://www.w3.org/2000/svg"
   xmlns:sodipodi="http://sodipodi.sourceforge.net/DTD/sodipodi-0.dtd"
   xmlns:inkscape="http://www.inkscape.org/namespaces/inkscape"
   width="26.315372mm"
   height="12.953496mm"
   viewBox="0 0 26.315372 12.953496"
   version="1.1"
   id="svg9330"
   inkscape:version="0.92.3 (2405546, 2018-03-11)"
   sodipodi:docname="options.svg">
  <defs
     id="defs9324" />
  <sodipodi:namedview
     id="base"
     pagecolor="#ffffff"
     bordercolor="#666666"
     borderopacity="1.0"
     inkscape:pageopacity="0.0"
     inkscape:pageshadow="2"
     inkscape:zoom="5.0462119"
     inkscape:cx="21.785477"
     inkscape:cy="-17.185196"
     inkscape:document-units="mm"
     inkscape:current-layer="layer1"
     showgrid="false"
     fit-margin-top="2"
     fit-margin-bottom="2"
     fit-margin-left="1"
     fit-margin-right="1"
     inkscape:window-width="2560"
     inkscape:window-height="1380"
     inkscape:window-x="0"
     inkscape:window-y="0"
     inkscape:window-maximized="1" />
  <metadata
     id="metadata9327">
    <rdf:RDF>
      <cc:Work
         rdf:about="">
        <dc:format>image/svg+xml</dc:format>
        <dc:type
           rdf:resource="http://purl.org/dc/dcmitype/StillImage" />
        <dc:title></dc:title>
      </cc:Work>
    </rdf:RDF>
  </metadata>
  <g
     inkscape:label="Layer 1"
     inkscape:groupmode="layer"
     id="layer1"
     transform="translate(-8.2983645,-12.497578)">
    <g
       aria-label="Options"
       style="font-style:normal;font-variant:normal;font-weight:normal;font-stretch:normal;font-size:10.58333302px;line-height:1.25;font-family:'Accidental Presidency';-inkscape-font-specification:'Accidental Presidency, Normal';font-variant-ligatures:normal;font-variant-caps:normal;font-variant-numeric:normal;font-feature-settings:normal;text-align:start;letter-spacing:0px;word-spacing:0px;writing-mode:lr-tb;text-anchor:start;fill:#000000;fill-opacity:1;stroke:none;stroke-width:0.26458332"
       id="text9288">
      <path
         d="m 12.748531,20.022078 q 0,0.656166 -0.465667,1.121833 -0.465666,0.465666 -1.121833,0.465666 h -0.275167 q -0.656166,0 -1.1218328,-0.465666 -0.4656667,-0.465667 -0.4656667,-1.121833 v -3.937 q 0,-0.656167 0.4656667,-1.121834 0.4656668,-0.465666 1.1218328,-0.465666 h 0.275167 q 0.656167,0 1.121833,0.465666 0.465667,0.465667 0.465667,1.121834 z m -1.058333,-0.28575 v -3.407834 q 0,-0.41275 -0.08467,-0.60325 -0.137583,-0.28575 -0.497417,-0.28575 -0.751416,0 -0.751416,0.889 v 3.407834 q 0,0.888999 0.687916,0.888999 0.645584,0 0.645584,-0.888999 z"
         style="font-style:normal;font-variant:normal;font-weight:normal;font-stretch:normal;font-size:10.58333302px;font-family:'Accidental Presidency';-inkscape-font-specification:'Accidental Presidency, Normal';font-variant-ligatures:normal;font-variant-caps:normal;font-variant-numeric:normal;font-feature-settings:normal;text-align:start;writing-mode:lr-tb;text-anchor:start;stroke-width:0.26458332"
         id="path13825"
         inkscape:connector-curvature="0" />
      <path
         d="m 16.831217,19.979744 q 0,0.656167 -0.465667,1.121833 -0.465666,0.465667 -1.121833,0.465667 H 14.96855 q -0.296333,0 -0.529166,-0.296333 l 0.01058,2.169583 -1.100667,0.01058 v -6.868583 l 1.026584,-0.01058 v 0.306917 q 0.211666,-0.41275 0.867833,-0.41275 0.656167,0 1.121833,0.465666 0.465667,0.465667 0.465667,1.121834 z m -1.058333,-0.243416 v -1.397 q 0,-0.889 -0.645584,-0.889 -0.465666,0 -0.613833,0.34925 -0.08467,0.201083 -0.08467,0.740833 0,0.09525 0.01058,0.66675 0.02117,0.867833 0.03175,0.910167 0.105833,0.507999 0.613833,0.507999 0.687917,0 0.687917,-0.888999 z"
         style="font-style:normal;font-variant:normal;font-weight:normal;font-stretch:normal;font-size:10.58333302px;font-family:'Accidental Presidency';-inkscape-font-specification:'Accidental Presidency, Normal';font-variant-ligatures:normal;font-variant-caps:normal;font-variant-numeric:normal;font-feature-settings:normal;text-align:start;writing-mode:lr-tb;text-anchor:start;stroke-width:0.26458332"
         id="path13827"
         inkscape:connector-curvature="0" />
      <path
         d="m 19.74924,21.651911 q -1.820333,0 -1.820333,-1.0795 v -3.01625 h -0.518583 l -0.01058,-0.941917 h 0.539749 l -0.02117,-0.931333 h 1.058333 l 0.01058,0.941917 h 0.762 v 0.931333 h -0.762 v 2.772833 q 0,0.296333 0.254,0.370417 0.116417,0.03175 0.497417,0.02117 z"
         style="font-style:normal;font-variant:normal;font-weight:normal;font-stretch:normal;font-size:10.58333302px;font-family:'Accidental Presidency';-inkscape-font-specification:'Accidental Presidency, Normal';font-variant-ligatures:normal;font-variant-caps:normal;font-variant-numeric:normal;font-feature-settings:normal;text-align:start;writing-mode:lr-tb;text-anchor:start;stroke-width:0.26458332"
         id="path13829"
         inkscape:connector-curvature="0" />
      <path
         d="m 21.551549,15.799328 h -1.100667 l -0.01058,-1.17475 1.100666,0.01058 z m 0,5.704416 h -1.100667 v -5.08 h 1.100667 z"
         style="font-style:normal;font-variant:normal;font-weight:normal;font-stretch:normal;font-size:10.58333302px;font-family:'Accidental Presidency';-inkscape-font-specification:'Accidental Presidency, Normal';font-variant-ligatures:normal;font-variant-caps:normal;font-variant-numeric:normal;font-feature-settings:normal;text-align:start;writing-mode:lr-tb;text-anchor:start;stroke-width:0.26458332"
         id="path13831"
         inkscape:connector-curvature="0" />
      <path
         d="m 25.604139,20.022078 q 0,0.656166 -0.465667,1.121833 -0.465667,0.465666 -1.121833,0.465666 h -0.275167 q -0.656167,0 -1.121833,-0.465666 -0.465667,-0.465667 -0.465667,-1.121833 v -1.926167 q 0,-0.656167 0.465667,-1.121833 0.465666,-0.465667 1.121833,-0.465667 h 0.275167 q 0.656166,0 1.121833,0.465667 0.465667,0.465666 0.465667,1.121833 z m -1.058334,-0.28575 v -1.397 q 0,-0.889 -0.687916,-0.889 -0.645584,0 -0.645584,0.889 v 1.397 q 0,0.888999 0.687917,0.888999 0.645583,0 0.645583,-0.888999 z"
         style="font-style:normal;font-variant:normal;font-weight:normal;font-stretch:normal;font-size:10.58333302px;font-family:'Accidental Presidency';-inkscape-font-specification:'Accidental Presidency, Normal';font-variant-ligatures:normal;font-variant-caps:normal;font-variant-numeric:normal;font-feature-settings:normal;text-align:start;writing-mode:lr-tb;text-anchor:start;stroke-width:0.26458332"
         id="path13833"
         inkscape:connector-curvature="0" />
      <path
         d="m 29.605135,17.990078 -0.01058,3.513666 h -1.037167 l -0.01058,-3.27025 q 0,-0.889 -0.687917,-0.889 -0.624416,0 -0.624416,0.60325 l 0.01058,3.556 h -1.11125 l -0.01058,-5.08 1.100666,0.01058 -0.01058,0.264583 q 0.243417,-0.296333 0.910167,-0.296333 0.656166,0 1.068916,0.465666 0.41275,0.455084 0.41275,1.121834 z"
         style="font-style:normal;font-variant:normal;font-weight:normal;font-stretch:normal;font-size:10.58333302px;font-family:'Accidental Presidency';-inkscape-font-specification:'Accidental Presidency, Normal';font-variant-ligatures:normal;font-variant-caps:normal;font-variant-numeric:normal;font-feature-settings:normal;text-align:start;writing-mode:lr-tb;text-anchor:start;stroke-width:0.26458332"
         id="path13835"
         inkscape:connector-curvature="0" />
      <path
         d="m 33.613737,20.053828 q 0,0.656166 -0.465667,1.121833 -0.465666,0.465666 -1.121833,0.465666 H 31.75107 q -0.60325,0 -1.04775,-0.391583 -0.4445,-0.391583 -0.529166,-0.98425 h 1.11125 q 0.148166,0.433917 0.624416,0.433917 0.254,0 0.4445,-0.169334 0.201084,-0.179916 0.201084,-0.423333 0,-0.5715 -0.79375,-0.5715 -0.677334,0 -1.132417,-0.381 -0.486833,-0.402166 -0.486833,-1.058333 0,-0.656167 0.465666,-1.121833 0.465667,-0.465667 1.121834,-0.465667 h 0.275166 q 0.60325,0 1.04775,0.402167 0.455084,0.391583 0.529167,0.98425 h -1.11125 q -0.137583,-0.4445 -0.624417,-0.4445 -0.264583,0 -0.455083,0.169333 -0.1905,0.15875 -0.1905,0.423333 0,0.5715 0.79375,0.5715 0.677333,0 1.132417,0.370417 0.486833,0.402167 0.486833,1.068917 z"
         style="font-style:normal;font-variant:normal;font-weight:normal;font-stretch:normal;font-size:10.58333302px;font-family:'Accidental Presidency';-inkscape-font-specification:'Accidental Presidency, Normal';font-variant-ligatures:normal;font-variant-caps:normal;font-variant-numeric:normal;font-feature-settings:normal;text-align:start;writing-mode:lr-tb;text-anchor:start;stroke-width:0.26458332"
         id="path13837"
         inkscape:connector-curvature="0" />
    </g>
    <g
       id="g4766"
       style="font-style:normal;font-variant:normal;font-weight:normal;font-stretch:normal;font-size:10.58333302px;line-height:1.25;font-family:'Accidental Presidency';-inkscape-font-specification:'Accidental Presidency, Normal';font-variant-ligatures:normal;font-variant-caps:normal;font-variant-numeric:normal;font-feature-settings:normal;text-align:start;letter-spacing:0px;word-spacing:0px;writing-mode:lr-tb;text-anchor:start;fill:#ffffff;fill-opacity:1;stroke:none;stroke-width:0.26458332"
       aria-label="Options"
       transform="translate(-0.52916667,-0.52916667)">
      <path
         inkscape:connector-curvature="0"
         id="path4752"
         style="font-style:normal;font-variant:normal;font-weight:normal;font-stretch:normal;font-size:10.58333302px;font-family:'Accidental Presidency';-inkscape-font-specification:'Accidental Presidency, Normal';font-variant-ligatures:normal;font-variant-caps:normal;font-variant-numeric:normal;font-feature-settings:normal;text-align:start;writing-mode:lr-tb;text-anchor:start;stroke-width:0.26458332;fill:#ffffff"
         d="m 12.748531,20.022078 q 0,0.656166 -0.465667,1.121833 -0.465666,0.465666 -1.121833,0.465666 h -0.275167 q -0.656166,0 -1.1218328,-0.465666 -0.4656667,-0.465667 -0.4656667,-1.121833 v -3.937 q 0,-0.656167 0.4656667,-1.121834 0.4656668,-0.465666 1.1218328,-0.465666 h 0.275167 q 0.656167,0 1.121833,0.465666 0.465667,0.465667 0.465667,1.121834 z m -1.058333,-0.28575 v -3.407834 q 0,-0.41275 -0.08467,-0.60325 -0.137583,-0.28575 -0.497417,-0.28575 -0.751416,0 -0.751416,0.889 v 3.407834 q 0,0.888999 0.687916,0.888999 0.645584,0 0.645584,-0.888999 z" />
      <path
         inkscape:connector-curvature="0"
         id="path4754"
         style="font-style:normal;font-variant:normal;font-weight:normal;font-stretch:normal;font-size:10.58333302px;font-family:'Accidental Presidency';-inkscape-font-specification:'Accidental Presidency, Normal';font-variant-ligatures:normal;font-variant-caps:normal;font-variant-numeric:normal;font-feature-settings:normal;text-align:start;writing-mode:lr-tb;text-anchor:start;stroke-width:0.26458332;fill:#ffffff"
         d="m 16.831217,19.979744 q 0,0.656167 -0.465667,1.121833 -0.465666,0.465667 -1.121833,0.465667 H 14.96855 q -0.296333,0 -0.529166,-0.296333 l 0.01058,2.169583 -1.100667,0.01058 v -6.868583 l 1.026584,-0.01058 v 0.306917 q 0.211666,-0.41275 0.867833,-0.41275 0.656167,0 1.121833,0.465666 0.465667,0.465667 0.465667,1.121834 z m -1.058333,-0.243416 v -1.397 q 0,-0.889 -0.645584,-0.889 -0.465666,0 -0.613833,0.34925 -0.08467,0.201083 -0.08467,0.740833 0,0.09525 0.01058,0.66675 0.02117,0.867833 0.03175,0.910167 0.105833,0.507999 0.613833,0.507999 0.687917,0 0.687917,-0.888999 z" />
      <path
         inkscape:connector-curvature="0"
         id="path4756"
         style="font-style:normal;font-variant:normal;font-weight:normal;font-stretch:normal;font-size:10.58333302px;font-family:'Accidental Presidency';-inkscape-font-specification:'Accidental Presidency, Normal';font-variant-ligatures:normal;font-variant-caps:normal;font-variant-numeric:normal;font-feature-settings:normal;text-align:start;writing-mode:lr-tb;text-anchor:start;stroke-width:0.26458332;fill:#ffffff"
         d="m 19.74924,21.651911 q -1.820333,0 -1.820333,-1.0795 v -3.01625 h -0.518583 l -0.01058,-0.941917 h 0.539749 l -0.02117,-0.931333 h 1.058333 l 0.01058,0.941917 h 0.762 v 0.931333 h -0.762 v 2.772833 q 0,0.296333 0.254,0.370417 0.116417,0.03175 0.497417,0.02117 z" />
      <path
         inkscape:connector-curvature="0"
         id="path4758"
         style="font-style:normal;font-variant:normal;font-weight:normal;font-stretch:normal;font-size:10.58333302px;font-family:'Accidental Presidency';-inkscape-font-specification:'Accidental Presidency, Normal';font-variant-ligatures:normal;font-variant-caps:normal;font-variant-numeric:normal;font-feature-settings:normal;text-align:start;writing-mode:lr-tb;text-anchor:start;stroke-width:0.26458332;fill:#ffffff"
         d="m 21.551549,15.799328 h -1.100667 l -0.01058,-1.17475 1.100666,0.01058 z m 0,5.704416 h -1.100667 v -5.08 h 1.100667 z" />
      <path
         inkscape:connector-curvature="0"
         id="path4760"
         style="font-style:normal;font-variant:normal;font-weight:normal;font-stretch:normal;font-size:10.58333302px;font-family:'Accidental Presidency';-inkscape-font-specification:'Accidental Presidency, Normal';font-variant-ligatures:normal;font-variant-caps:normal;font-variant-numeric:normal;font-feature-settings:normal;text-align:start;writing-mode:lr-tb;text-anchor:start;stroke-width:0.26458332;fill:#ffffff"
         d="m 25.604139,20.022078 q 0,0.656166 -0.465667,1.121833 -0.465667,0.465666 -1.121833,0.465666 h -0.275167 q -0.656167,0 -1.121833,-0.465666 -0.465667,-0.465667 -0.465667,-1.121833 v -1.926167 q 0,-0.656167 0.465667,-1.121833 0.465666,-0.465667 1.121833,-0.465667 h 0.275167 q 0.656166,0 1.121833,0.465667 0.465667,0.465666 0.465667,1.121833 z m -1.058334,-0.28575 v -1.397 q 0,-0.889 -0.687916,-0.889 -0.645584,0 -0.645584,0.889 v 1.397 q 0,0.888999 0.687917,0.888999 0.645583,0 0.645583,-0.888999 z" />
      <path
         inkscape:connector-curvature="0"
         id="path4762"
         style="font-style:normal;font-variant:normal;font-weight:normal;font-stretch:normal;font-size:10.58333302px;font-family:'Accidental Presidency';-inkscape-font-specification:'Accidental Presidency, Normal';font-variant-ligatures:normal;font-variant-caps:normal;font-variant-numeric:normal;font-feature-settings:normal;text-align:start;writing-mode:lr-tb;text-anchor:start;stroke-width:0.26458332;fill:#ffffff"
         d="m 29.605135,17.990078 -0.01058,3.513666 h -1.037167 l -0.01058,-3.27025 q 0,-0.889 -0.687917,-0.889 -0.624416,0 -0.624416,0.60325 l 0.01058,3.556 h -1.11125 l -0.01058,-5.08 1.100666,0.01058 -0.01058,0.264583 q 0.243417,-0.296333 0.910167,-0.296333 0.656166,0 1.068916,0.465666 0.41275,0.455084 0.41275,1.121834 z" />
      <path
         inkscape:connector-curvature="0"
         id="path4764"
         style="font-style:normal;font-variant:normal;font-weight:normal;font-stretch:normal;font-size:10.58333302px;font-family:'Accidental Presidency';-inkscape-font-specification:'Accidental Presidency, Normal';font-variant-ligatures:normal;font-variant-caps:normal;font-variant-numeric:normal;font-feature-settings:normal;text-align:start;writing-mode:lr-tb;text-anchor:start;stroke-width:0.26458332;fill:#ffffff"
         d="m 33.613737,20.053828 q 0,0.656166 -0.465667,1.121833 -0.465666,0.465666 -1.121833,0.465666 H 31.75107 q -0.60325,0 -1.04775,-0.391583 -0.4445,-0.391583 -0.529166,-0.98425 h 1.11125 q 0.148166,0.433917 0.624416,0.433917 0.254,0 0.4445,-0.169334 0.201084,-0.179916 0.201084,-0.423333 0,-0.5715 -0.79375,-0.5715 -0.677334,0 -1.132417,-0.381 -0.486833,-0.402166 -0.486833,-1.058333 0,-0.656167 0.465666,-1.121833 0.465667,-0.465667 1.121834,-0.465667 h 0.275166 q 0.60325,0 1.04775,0.402167 0.455084,0.391583 0.529167,0.98425 h -1.11125 q -0.137583,-0.4445 -0.624417,-0.4445 -0.264583,0 -0.455083,0.169333 -0.1905,0.15875 -0.1905,0.423333 0,0.5715 0.79375,0.5715 0.677333,0 1.132417,0.370417 0.486833,0.402167 0.486833,1.068917 z" />
    </g>
  </g>
</svg>
