<?xml version="1.0" encoding="UTF-8" standalone="no"?>
<!-- Created with Inkscape (http://www.inkscape.org/) -->

<svg
   xmlns:dc="http://purl.org/dc/elements/1.1/"
   xmlns:cc="http://creativecommons.org/ns#"
   xmlns:rdf="http://www.w3.org/1999/02/22-rdf-syntax-ns#"
   xmlns:svg="http://www.w3.org/2000/svg"
   xmlns="http://www.w3.org/2000/svg"
   xmlns:sodipodi="http://sodipodi.sourceforge.net/DTD/sodipodi-0.dtd"
   xmlns:inkscape="http://www.inkscape.org/namespaces/inkscape"
   width="14.779044mm"
   height="11.228416mm"
   viewBox="0 0 14.779044 11.228416"
   version="1.1"
   id="svg13865"
   inkscape:version="0.92.3 (2405546, 2018-03-11)"
   sodipodi:docname="quit.svg">
  <defs
     id="defs13859" />
  <sodipodi:namedview
     id="base"
     pagecolor="#ffffff"
     bordercolor="#666666"
     borderopacity="1.0"
     inkscape:pageopacity="0.0"
     inkscape:pageshadow="2"
     inkscape:zoom="0.98994949"
     inkscape:cx="-0.7047561"
     inkscape:cy="-220.69597"
     inkscape:document-units="mm"
     inkscape:current-layer="layer1"
     showgrid="false"
     fit-margin-top="2"
     fit-margin-bottom="2"
     fit-margin-left="1"
     fit-margin-right="1"
     inkscape:window-width="3440"
     inkscape:window-height="1412"
     inkscape:window-x="2560"
     inkscape:window-y="0"
     inkscape:window-maximized="1" />
  <metadata
     id="metadata13862">
    <rdf:RDF>
      <cc:Work
         rdf:about="">
        <dc:format>image/svg+xml</dc:format>
        <dc:type
           rdf:resource="http://purl.org/dc/dcmitype/StillImage" />
        <dc:title></dc:title>
      </cc:Work>
    </rdf:RDF>
  </metadata>
  <g
     inkscape:label="Layer 1"
     inkscape:groupmode="layer"
     id="layer1"
     transform="translate(-61.854571,-40.46781)">
    <g
       aria-label="Quit"
       style="font-style:normal;font-variant:normal;font-weight:normal;font-stretch:normal;font-size:10.58333302px;line-height:1.25;font-family:'Accidental Presidency';-inkscape-font-specification:'Accidental Presidency, Normal';font-variant-ligatures:normal;font-variant-caps:normal;font-variant-numeric:normal;font-feature-settings:normal;text-align:start;letter-spacing:0px;word-spacing:0px;writing-mode:lr-tb;text-anchor:start;fill:#000000;fill-opacity:1;stroke:none;stroke-width:0.26458332"
       id="text9288">
      <path
         d="m 66.865655,48.913059 -0.772584,0.783167 -0.4445,-0.423333 q -0.41275,0.306916 -1.2065,0.306916 -0.656166,0 -1.121833,-0.465666 -0.465667,-0.465667 -0.465667,-1.121833 v -3.937 q 0,-0.656167 0.465667,-1.121834 0.465667,-0.465666 1.121833,-0.465666 h 0.275167 q 0.656167,0 1.121833,0.465666 0.465667,0.465667 0.465667,1.121834 v 3.937 q 0,0.179916 -0.03175,0.34925 z m -1.61925,-1.587499 v -3.090334 q 0,-0.8255 -0.582084,-0.8255 -0.751416,0 -0.751416,0.889 v 3.407834 q 0,0.888999 0.687916,0.888999 0.1905,0 0.3175,-0.05292 l -0.719666,-0.709083 0.783166,-0.772584 z"
         style="font-style:normal;font-variant:normal;font-weight:normal;font-stretch:normal;font-size:10.58333302px;font-family:'Accidental Presidency';-inkscape-font-specification:'Accidental Presidency, Normal';font-variant-ligatures:normal;font-variant-caps:normal;font-variant-numeric:normal;font-feature-settings:normal;text-align:start;writing-mode:lr-tb;text-anchor:start;stroke-width:0.26458332"
         id="path18350"
         inkscape:connector-curvature="0" />
      <path
         d="m 70.865824,49.484559 -1.100667,-0.01058 0.01058,-0.264583 q -0.243417,0.296333 -0.910167,0.296333 -0.656167,0 -1.068917,-0.455083 -0.41275,-0.465667 -0.41275,-1.132417 l 0.01058,-3.513666 h 1.037166 l 0.01058,3.27025 q 0,0.888999 0.687916,0.888999 0.624417,0 0.624417,-0.603249 l -0.01058,-3.556 h 1.111249 z"
         style="font-style:normal;font-variant:normal;font-weight:normal;font-stretch:normal;font-size:10.58333302px;font-family:'Accidental Presidency';-inkscape-font-specification:'Accidental Presidency, Normal';font-variant-ligatures:normal;font-variant-caps:normal;font-variant-numeric:normal;font-feature-settings:normal;text-align:start;writing-mode:lr-tb;text-anchor:start;stroke-width:0.26458332"
         id="path18352"
         inkscape:connector-curvature="0" />
      <path
         d="m 72.681692,43.76956 h -1.100667 l -0.01058,-1.17475 1.100667,0.01058 z m 0,5.704416 h -1.100667 v -5.08 h 1.100667 z"
         style="font-style:normal;font-variant:normal;font-weight:normal;font-stretch:normal;font-size:10.58333302px;font-family:'Accidental Presidency';-inkscape-font-specification:'Accidental Presidency, Normal';font-variant-ligatures:normal;font-variant-caps:normal;font-variant-numeric:normal;font-feature-settings:normal;text-align:start;writing-mode:lr-tb;text-anchor:start;stroke-width:0.26458332"
         id="path18354"
         inkscape:connector-curvature="0" />
      <path
         d="m 75.633615,49.622143 q -1.820333,0 -1.820333,-1.0795 v -3.01625 h -0.518584 l -0.01058,-0.941917 h 0.53975 l -0.02117,-0.931333 h 1.058334 l 0.01058,0.941917 h 0.762 v 0.931333 h -0.762 v 2.772833 q 0,0.296333 0.254,0.370417 0.116417,0.03175 0.497417,0.02117 z"
         style="font-style:normal;font-variant:normal;font-weight:normal;font-stretch:normal;font-size:10.58333302px;font-family:'Accidental Presidency';-inkscape-font-specification:'Accidental Presidency, Normal';font-variant-ligatures:normal;font-variant-caps:normal;font-variant-numeric:normal;font-feature-settings:normal;text-align:start;writing-mode:lr-tb;text-anchor:start;stroke-width:0.26458332"
         id="path18356"
         inkscape:connector-curvature="0" />
    </g>
  </g>
</svg>
