# Blender v2.82 (sub 7) OBJ File: 'hand.blend'
# www.blender.org
mtllib hand.mtl
o Cube
v 0.831530 -0.086834 -0.620061
v 0.734908 -0.437508 -0.620061
v -1.008784 0.079055 0.329396
v -0.531777 0.000000 1.000000
v -0.837666 0.079055 0.689746
v -0.531777 -0.500000 1.000000
v -1.017568 -0.403377 0.329396
v -0.846450 -0.403377 0.689746
v 0.420947 0.013303 1.014191
v 0.780390 0.013303 0.287933
v 0.593607 0.013303 0.738867
v 0.692551 -0.469129 0.287933
v 0.420947 -0.486697 1.014191
v 0.505769 -0.469129 0.738867
v -0.695918 -0.021975 -1.102551
v -1.122974 0.000000 -0.107398
v -0.948386 0.079055 -0.763925
v -1.140542 -0.403377 -0.107398
v -0.695918 -0.521975 -1.102551
v -0.939602 -0.500000 -0.763925
v -1.791245 0.465069 -0.607406
v -1.528818 0.465069 -1.000416
v -1.791245 -0.034931 -0.607406
v -1.528818 -0.034931 -1.000417
v 0.844179 0.128070 -0.845014
v 0.844179 -0.007105 -1.299850
v -0.683269 0.192929 -1.327503
v -0.683269 0.057754 -1.782340
v 0.844179 0.512932 -0.587269
v 0.844179 0.566739 -1.036857
v -0.683269 0.577791 -1.069758
v -0.683269 0.631598 -1.519346
v 0.601322 0.728052 -0.308286
v 0.601322 1.068789 -0.375208
v -0.620261 0.808087 -0.869232
v -0.455591 1.133648 -0.766627
v -0.723778 0.091240 1.896711
v -0.723778 -0.596228 1.896711
v 0.586156 0.109531 1.916222
v 0.586156 -0.577937 1.916222
vt 0.208825 0.750000
vt 0.295286 0.750000
vt 0.295286 0.750000
vt 0.208825 0.750000
vt 0.125000 0.563264
vt 0.297862 0.339529
vt 0.188264 0.500000
vt 0.375000 0.500000
vt 0.375000 0.670286
vt 0.367217 0.742217
vt 0.149552 0.725448
vt 0.125000 0.666175
vt 0.625000 0.500000
vt 0.811736 0.500000
vt 0.702138 0.339529
vt 0.875000 0.563264
vt 0.875000 0.666175
vt 0.850448 0.725448
vt 0.791175 0.750000
vt 0.704714 0.750000
vt 0.632783 0.742217
vt 0.625000 0.670286
vt 0.375000 0.916175
vt 0.625000 0.916175
vt 0.625000 1.000000
vt 0.375000 1.000000
vt 0.375000 0.000000
vt 0.625000 0.000000
vt 0.625000 0.083825
vt 0.375000 0.083825
vt 0.188264 0.500000
vt 0.375000 0.500000
vt 0.625000 0.829714
vt 0.375000 0.829714
vt 0.625000 0.313264
vt 0.375000 0.313264
vt 0.375000 0.186736
vt 0.625000 0.186736
vt 0.625000 0.186736
vt 0.375000 0.186736
vt 0.702138 0.339529
vt 0.875000 0.563264
vt 0.125000 0.563264
vt 0.297862 0.339529
vt 0.188264 0.500000
vt 0.375000 0.500000
vt 0.625000 0.500000
vt 0.625000 0.313264
vt 0.375000 0.313264
vt 0.811736 0.500000
vt 0.625000 0.500000
vt 0.375000 0.500000
vt 0.625000 0.500000
vt 0.811736 0.500000
vt 0.625000 0.313264
vt 0.375000 0.313264
vt 0.375000 0.313264
vt 0.625000 0.313264
vt 0.811736 0.500000
vt 0.188264 0.500000
vt 0.000000 0.000000
vt 0.000000 0.000000
vt 0.000000 0.000000
vt 0.000000 0.000000
vt 0.375000 0.829714
vt 0.625000 0.829714
vt 0.625000 0.916175
vt 0.375000 0.916175
vt 0.791175 0.750000
vt 0.704714 0.750000
vn -0.5342 -0.8404 0.0911
vn 0.6269 -0.7783 0.0345
vn 0.6248 -0.5921 0.5089
vn -0.6323 -0.6019 0.4877
vn -0.6059 -0.7558 0.2484
vn -0.3605 -0.8390 -0.4075
vn -0.4254 -0.7814 -0.4564
vn 0.6118 -0.7746 -0.1602
vn 0.6460 -0.7463 0.1603
vn 0.6141 -0.7377 0.2803
vn -0.6328 -0.6270 0.4543
vn -0.6926 -0.6743 0.2562
vn 0.8610 0.4592 0.2182
vn -0.7836 0.6212 0.0055
vn 0.1286 0.8551 -0.5022
vn -0.4686 0.7470 0.4716
vn -0.6490 0.7248 0.2311
vn -0.5795 0.7103 0.3994
vn -0.5569 0.8211 0.1253
vn 0.6427 0.7658 0.0210
vn 0.7244 0.6307 0.2782
vn 0.7884 0.5965 0.1502
vn -0.4805 -0.1877 -0.8567
vn 0.6972 -0.2413 -0.6750
vn -0.6448 0.7379 0.1993
vn -0.9145 -0.3807 0.1370
vn -0.0751 0.7344 -0.6745
vn -0.3576 -0.3975 -0.8450
vn -0.5524 0.5504 -0.6260
vn 0.7701 0.4620 -0.4398
vn 0.8237 -0.0085 0.5670
vn -0.9303 0.0418 0.3644
vn 0.6816 -0.2793 0.6763
vn 0.3661 0.8160 0.4473
vn 0.2438 -0.2349 0.9409
vn -0.8621 -0.2201 0.4563
vn -0.3984 0.8641 0.3075
vn -0.8409 -0.1019 0.5314
vn 0.6175 0.6019 0.5063
vn -0.6397 0.5921 0.4900
usemtl Material
s 1
f 6/1/1 13/2/2 40/3/3 38/4/4
f 18/5/5 20/6/6 19/7/7 2/8/8 12/9/9 14/10/10 13/2/2 6/1/1 8/11/11 7/12/12
f 1/13/13 15/14/14 17/15/15 16/16/16 3/17/17 5/18/18 4/19/19 9/20/20 11/21/21 10/22/22
f 6/23/1 4/24/19 5/25/18 8/26/11
f 8/27/11 5/28/18 3/29/17 7/30/12
f 2/8/8 19/7/7 28/31/23 26/32/24
f 9/33/20 13/34/2 14/10/10 11/21/21
f 11/21/21 14/10/10 12/9/9 10/22/22
f 2/8/8 1/13/13 10/22/22 12/9/9
f 15/35/14 19/36/7 20/6/6 17/15/15
f 18/37/5 16/38/16 21/39/25 23/40/26
f 7/30/12 3/29/17 16/38/16 18/37/5
f 16/16/16 17/15/15 22/41/27 21/42/25
f 20/6/6 18/5/5 23/43/26 24/44/28
f 17/15/15 20/6/6 24/44/28 22/41/27
f 26/32/24 28/31/23 32/45/29 30/46/30
f 1/13/13 2/8/8 26/32/24 25/47/31
f 19/36/7 15/35/14 27/48/32 28/49/23
f 15/14/14 1/13/13 25/47/31 27/50/32
f 29/51/33 30/46/30 34/52/34 33/53/35
f 25/47/31 26/32/24 30/46/30 29/51/33
f 27/50/32 25/47/31 29/51/33 31/54/36
f 28/49/23 27/48/32 31/55/36 32/56/29
f 36/57/37 35/58/38 33/53/35 34/52/34
f 31/54/36 29/51/33 33/53/35 35/59/38
f 32/56/29 31/55/36 35/58/38 36/57/37
f 30/46/30 32/45/29 36/60/37 34/52/34
f 22/61/27 24/62/28 23/63/26
f 22/61/27 23/63/26 21/64/25
f 40/65/3 39/66/39 37/67/40 38/68/4
f 9/20/20 4/19/19 37/69/40 39/70/39
f 4/24/19 6/23/1 38/68/4 37/67/40
f 13/34/2 9/33/20 39/66/39 40/65/3
