# Blender v2.82 (sub 7) OBJ File: 'side.blend'
# www.blender.org
mtllib side.mtl
o Cube_Cube.001
v -70.000000 -20.000000 1.000000
v -70.000000 20.000000 1.000000
v -70.000000 -20.000000 -1.000000
v -70.000000 20.000000 -1.000000
v 70.000000 -20.000000 1.000000
v 70.000000 20.000000 1.000000
v 70.000000 -20.000000 -1.000000
v 70.000000 20.000000 -1.000000
v 1.111143 9.662938 -1.000000
v 1.111143 9.662938 1.000000
v 0.765369 9.847758 -1.000000
v 0.765369 9.847758 1.000000
v -0.765367 6.152241 -1.000000
v -0.765367 6.152241 1.000000
v -1.111140 6.337061 -1.000000
v -1.111140 6.337061 1.000000
v -0.765365 9.847760 -1.000000
v -0.765365 9.847760 1.000000
v 0.000000 6.000000 -1.000000
v 0.000000 6.000000 1.000000
v -1.961571 7.609820 -1.000000
v -1.961571 7.609820 1.000000
v -1.414213 9.414214 -1.000000
v -1.414213 9.414214 1.000000
v -0.390179 9.961571 -1.000000
v -0.390179 9.961571 1.000000
v -1.111139 9.662941 -1.000000
v -1.111139 9.662941 1.000000
v -2.000000 8.000001 -1.000000
v -2.000000 8.000001 1.000000
v 0.765367 6.152241 -1.000000
v 0.765367 6.152241 1.000000
v 0.390183 9.961571 -1.000000
v 0.390183 9.961571 1.000000
v 0.000002 10.000000 -1.000000
v 0.000002 10.000000 1.000000
v -1.414214 6.585786 -1.000000
v -1.414214 6.585786 1.000000
v -0.390180 6.038430 -1.000000
v -0.390181 6.038430 1.000000
v -1.662938 9.111141 -1.000000
v -1.662939 9.111141 1.000000
v -1.847759 8.765368 -1.000000
v -1.847759 8.765368 1.000000
v -1.961570 8.390182 -1.000000
v -1.961570 8.390182 1.000000
v -1.847759 7.234633 -1.000000
v -1.847759 7.234633 1.000000
v -1.662939 6.888860 -1.000000
v -1.662939 6.888860 1.000000
v 1.111140 6.337061 -1.000000
v 1.111140 6.337061 1.000000
v 0.390181 6.038430 -1.000000
v 0.390181 6.038430 1.000000
v 1.414214 6.585786 -1.000000
v 1.414214 6.585786 1.000000
v 2.000000 8.000000 -1.000000
v 2.000000 8.000000 1.000000
v 1.414215 9.414211 -1.000000
v 1.414215 9.414212 1.000000
v 1.961571 7.609818 -1.000000
v 1.961570 7.609819 1.000000
v 1.662941 9.111138 -1.000000
v 1.662941 9.111138 1.000000
v 1.847760 8.765365 -1.000000
v 1.847760 8.765365 1.000000
v 1.847759 7.234633 -1.000000
v 1.847759 7.234633 1.000000
v 1.662939 6.888859 -1.000000
v 1.662939 6.888859 1.000000
v 1.961571 8.390177 -1.000000
v 1.961571 8.390178 1.000000
vt 0.625000 0.000000
vt 0.375000 0.250000
vt 0.375000 0.000000
vt 0.537500 0.375000
vt 0.537740 0.375697
vt 0.375000 0.500000
vt 0.625000 0.500000
vt 0.375000 0.750000
vt 0.537500 0.875000
vt 0.537740 0.875697
vt 0.375000 1.000000
vt 0.125000 0.750000
vt 0.125000 0.500000
vt 0.875000 0.500000
vt 0.625000 0.750000
vt 0.562500 0.375000
vt 0.562260 0.374303
vt 0.625000 0.250000
vt 0.562500 0.875000
vt 0.562260 0.874303
vt 0.541161 0.372475
vt 0.538451 0.373633
vt 0.539607 0.373016
vt 0.550000 0.371429
vt 0.547561 0.371497
vt 0.545216 0.371700
vt 0.550000 0.378571
vt 0.547561 0.378503
vt 0.541161 0.377525
vt 0.545217 0.378300
vt 0.543055 0.377970
vt 0.543055 0.372030
vt 0.539607 0.376984
vt 0.537740 0.374303
vt 0.538451 0.376367
vt 0.541161 0.872475
vt 0.538451 0.873633
vt 0.539607 0.873016
vt 0.550000 0.871428
vt 0.547561 0.871497
vt 0.545216 0.871700
vt 0.550000 0.878571
vt 0.625000 1.000000
vt 0.547561 0.878503
vt 0.541161 0.877525
vt 0.545217 0.878300
vt 0.543055 0.877970
vt 0.543055 0.872030
vt 0.539607 0.876984
vt 0.537740 0.874303
vt 0.538451 0.876367
vt 0.875000 0.750000
vt 0.552439 0.378503
vt 0.554783 0.378300
vt 0.552439 0.371497
vt 0.554784 0.371700
vt 0.556945 0.377970
vt 0.558839 0.377525
vt 0.556945 0.372030
vt 0.558839 0.372475
vt 0.560393 0.376984
vt 0.561548 0.376367
vt 0.560393 0.373016
vt 0.561548 0.373633
vt 0.562260 0.375697
vt 0.552439 0.878503
vt 0.554784 0.878300
vt 0.552439 0.871497
vt 0.554784 0.871700
vt 0.556945 0.877970
vt 0.558839 0.877525
vt 0.556945 0.872030
vt 0.558839 0.872475
vt 0.560393 0.876984
vt 0.561548 0.876367
vt 0.560393 0.873016
vt 0.561548 0.873633
vt 0.562260 0.875697
vt 0.718750 0.875000
vt 0.750000 0.625000
vt 0.718750 0.625000
vt 0.625000 0.875000
vt 0.656250 0.625000
vt 0.625000 0.625000
vt 0.656250 0.875000
vt 0.687500 0.625000
vt 0.218750 0.875000
vt 0.250000 0.625000
vt 0.218750 0.625000
vt 0.781250 0.875000
vt 0.812500 0.625000
vt 0.781250 0.625000
vt 0.750000 0.875000
vt 0.843750 0.875000
vt 0.875000 0.625000
vt 0.843750 0.625000
vt 0.000000 0.875000
vt 0.031250 0.625000
vt 0.000000 0.625000
vt 0.468750 0.875000
vt 0.500000 0.625000
vt 0.468750 0.625000
vt 0.156250 0.875000
vt 0.187500 0.625000
vt 0.156250 0.625000
vt 0.500000 0.875000
vt 0.531250 0.625000
vt 0.031250 0.875000
vt 0.062500 0.625000
vt 0.875000 0.875000
vt 0.906250 0.625000
vt 0.406250 0.875000
vt 0.437500 0.625000
vt 0.406250 0.625000
vt 0.906250 0.875000
vt 0.937500 0.625000
vt 0.593750 0.875000
vt 0.593750 0.625000
vt 0.093750 0.875000
vt 0.125000 0.625000
vt 0.093750 0.625000
vt 0.187500 0.875000
vt 0.562500 0.875000
vt 0.562500 0.625000
vt 0.375000 0.875000
vt 0.375000 0.625000
vt 0.312500 0.875000
vt 0.343750 0.625000
vt 0.312500 0.625000
vt 0.968750 0.875000
vt 1.000000 0.625000
vt 0.968750 0.625000
vt 0.812500 0.875000
vt 0.250000 0.875000
vt 0.281250 0.625000
vt 0.687500 0.875000
vt 0.437500 0.875000
vt 0.062500 0.875000
vt 0.937500 0.875000
vt 0.531250 0.875000
vt 0.281250 0.875000
vt 0.125000 0.875000
vt 0.343750 0.875000
vt 1.000000 0.875000
vn -1.0000 0.0000 0.0000
vn 0.0000 0.0000 -1.0000
vn 1.0000 0.0000 0.0000
vn 0.0000 0.0000 1.0000
vn 0.0000 -1.0000 0.0000
vn 0.0000 1.0000 0.0000
vn 0.1333 0.6705 0.7298
vn 0.0000 0.6836 -0.7298
vn 0.1333 0.6705 -0.7298
vn 0.4834 0.4834 0.7298
vn 0.3798 0.5684 -0.7298
vn 0.4834 0.4834 -0.7298
vn 0.3798 0.5684 0.7298
vn 0.2616 0.6316 -0.7298
vn -0.1334 -0.6705 0.7298
vn 0.0000 -0.6836 -0.7298
vn -0.1334 -0.6705 -0.7298
vn -0.1333 0.6705 0.7298
vn -0.2616 0.6316 -0.7298
vn -0.1333 0.6705 -0.7298
vn 0.0000 0.6836 0.7298
vn -0.3798 0.5684 0.7298
vn -0.4834 0.4834 -0.7298
vn -0.3798 0.5684 -0.7298
vn -0.6836 0.0000 0.7298
vn -0.6705 -0.1333 -0.7298
vn -0.6836 0.0000 -0.7298
vn 0.6705 -0.1334 0.7298
vn 0.6836 0.0000 -0.7298
vn 0.6705 -0.1334 -0.7298
vn -0.3798 -0.5684 0.7298
vn -0.2616 -0.6316 -0.7298
vn -0.3798 -0.5684 -0.7298
vn 0.6836 0.0000 0.7298
vn 0.6705 0.1333 -0.7298
vn -0.6705 -0.1333 0.7298
vn -0.6316 -0.2616 -0.7298
vn -0.4834 0.4834 0.7298
vn -0.5684 0.3798 -0.7298
vn 0.5684 -0.3798 0.7298
vn 0.6316 -0.2616 -0.7298
vn 0.5684 -0.3798 -0.7298
vn -0.5684 0.3798 0.7298
vn -0.6316 0.2616 -0.7298
vn 0.5684 0.3798 0.7298
vn 0.5684 0.3798 -0.7298
vn -0.5684 -0.3798 0.7298
vn -0.4834 -0.4834 -0.7298
vn -0.5684 -0.3798 -0.7298
vn -0.2616 -0.6316 0.7298
vn 0.6316 0.2616 0.7298
vn 0.6316 0.2616 -0.7298
vn 0.4834 -0.4834 0.7298
vn 0.4834 -0.4834 -0.7298
vn 0.2616 -0.6316 0.7298
vn 0.3798 -0.5684 -0.7298
vn 0.2616 -0.6316 -0.7298
vn -0.6705 0.1333 0.7298
vn -0.6705 0.1333 -0.7298
vn -0.2616 0.6316 0.7298
vn 0.0000 -0.6836 0.7298
vn 0.1333 -0.6705 -0.7298
vn 0.2616 0.6316 0.7298
vn 0.6316 -0.2616 0.7298
vn -0.6316 -0.2616 0.7298
vn -0.6316 0.2616 0.7298
vn 0.6705 0.1333 0.7298
vn 0.1333 -0.6705 0.7298
vn -0.4834 -0.4834 0.7298
vn 0.3798 -0.5684 0.7298
usemtl None
s off
f 2/1/1 3/2/1 1/3/1
f 19/4/2 53/5/2 7/6/2
f 8/7/3 5/8/3 7/6/3
f 20/9/4 40/10/4 1/11/4
f 7/6/5 1/12/5 3/13/5
f 4/14/6 6/15/6 8/7/6
f 35/16/2 25/17/2 4/18/2
f 36/19/4 34/20/4 6/15/4
f 2/1/1 4/18/1 3/2/1
f 7/6/2 3/2/2 19/4/2
f 3/2/2 4/18/2 37/21/2
f 13/22/2 3/2/2 15/23/2
f 4/18/2 29/24/2 21/25/2
f 4/18/2 21/25/2 47/26/2
f 57/27/2 8/7/2 61/28/2
f 8/7/2 7/6/2 55/29/2
f 61/28/2 8/7/2 67/30/2
f 67/30/2 8/7/2 69/31/2
f 4/18/2 47/26/2 49/32/2
f 4/18/2 49/32/2 37/21/2
f 69/31/2 8/7/2 55/29/2
f 37/21/2 15/23/2 3/2/2
f 51/33/2 55/29/2 7/6/2
f 3/2/2 13/22/2 39/34/2
f 3/2/2 39/34/2 19/4/2
f 31/35/2 51/33/2 7/6/2
f 53/5/2 31/35/2 7/6/2
f 8/7/3 6/15/3 5/8/3
f 1/11/4 5/8/4 20/9/4
f 5/8/4 6/15/4 56/36/4
f 32/37/4 5/8/4 52/38/4
f 6/15/4 58/39/4 62/40/4
f 6/15/4 62/40/4 68/41/4
f 30/42/4 2/43/4 22/44/4
f 2/43/4 1/11/4 38/45/4
f 22/44/4 2/43/4 48/46/4
f 48/46/4 2/43/4 50/47/4
f 6/15/4 68/41/4 70/48/4
f 6/15/4 70/48/4 56/36/4
f 50/47/4 2/43/4 38/45/4
f 56/36/4 52/38/4 5/8/4
f 16/49/4 38/45/4 1/11/4
f 5/8/4 32/37/4 54/50/4
f 5/8/4 54/50/4 20/9/4
f 14/51/4 16/49/4 1/11/4
f 40/10/4 14/51/4 1/11/4
f 7/6/5 5/8/5 1/12/5
f 4/14/6 2/52/6 6/15/6
f 8/7/2 57/27/2 71/53/2
f 8/7/2 71/53/2 65/54/2
f 45/55/2 29/24/2 4/18/2
f 43/56/2 45/55/2 4/18/2
f 8/7/2 65/54/2 63/57/2
f 8/7/2 63/57/2 59/58/2
f 41/59/2 43/56/2 4/18/2
f 23/60/2 41/59/2 4/18/2
f 8/7/2 59/58/2 9/61/2
f 8/7/2 9/61/2 11/62/2
f 27/63/2 23/60/2 4/18/2
f 17/64/2 27/63/2 4/18/2
f 8/7/2 11/62/2 33/65/2
f 8/7/2 33/65/2 35/16/2
f 25/17/2 17/64/2 4/18/2
f 8/7/2 35/16/2 4/18/2
f 2/43/4 30/42/4 46/66/4
f 2/43/4 46/66/4 44/67/4
f 72/68/4 58/39/4 6/15/4
f 66/69/4 72/68/4 6/15/4
f 2/43/4 44/67/4 42/70/4
f 2/43/4 42/70/4 24/71/4
f 64/72/4 66/69/4 6/15/4
f 60/73/4 64/72/4 6/15/4
f 2/43/4 24/71/4 28/74/4
f 2/43/4 28/74/4 18/75/4
f 10/76/4 60/73/4 6/15/4
f 12/77/4 10/76/4 6/15/4
f 2/43/4 18/75/4 26/78/4
f 2/43/4 26/78/4 36/19/4
f 34/20/4 12/77/4 6/15/4
f 2/43/4 36/19/4 6/15/4
s 1
f 40/79/7 19/80/8 39/81/9
f 38/82/10 15/83/11 37/84/12
f 16/85/13 13/86/14 15/83/11
f 34/87/15 35/88/16 33/89/17
f 54/90/18 31/91/19 53/92/20
f 20/93/21 53/92/20 19/80/8
f 52/94/22 55/95/23 51/96/24
f 58/97/25 71/98/26 57/99/27
f 46/100/28 29/101/29 45/102/30
f 10/103/31 11/104/32 9/105/33
f 30/106/34 21/107/35 29/101/29
f 72/108/36 65/109/37 71/98/26
f 56/110/38 69/111/39 55/95/23
f 42/112/40 43/113/41 41/114/42
f 70/115/43 67/116/44 69/111/39
f 50/117/45 37/84/12 49/118/46
f 64/119/47 59/120/48 63/121/49
f 12/122/50 33/89/17 11/104/32
f 48/123/51 49/118/46 47/124/52
f 24/125/53 41/114/42 23/126/54
f 18/127/55 27/128/56 17/129/57
f 62/130/58 57/131/27 61/132/59
f 32/133/60 51/96/24 31/91/19
f 36/134/61 25/135/62 35/88/16
f 14/136/63 39/81/9 13/86/14
f 44/137/64 45/102/30 43/113/41
f 66/138/65 63/121/49 65/109/37
f 68/139/66 61/132/59 67/116/44
f 22/140/67 47/124/52 21/107/35
f 26/141/68 17/129/57 25/135/62
f 60/142/69 9/105/33 59/120/48
f 27/128/56 24/125/53 23/126/54
f 40/79/7 20/93/21 19/80/8
f 38/82/10 16/85/13 15/83/11
f 16/85/13 14/136/63 13/86/14
f 34/87/15 36/134/61 35/88/16
f 54/90/18 32/133/60 31/91/19
f 20/93/21 54/90/18 53/92/20
f 52/94/22 56/110/38 55/95/23
f 58/97/25 72/108/36 71/98/26
f 46/100/28 30/106/34 29/101/29
f 10/103/31 12/122/50 11/104/32
f 30/106/34 22/140/67 21/107/35
f 72/108/36 66/138/65 65/109/37
f 56/110/38 70/115/43 69/111/39
f 42/112/40 44/137/64 43/113/41
f 70/115/43 68/139/66 67/116/44
f 50/117/45 38/82/10 37/84/12
f 64/119/47 60/142/69 59/120/48
f 12/122/50 34/87/15 33/89/17
f 48/123/51 50/117/45 49/118/46
f 24/125/53 42/112/40 41/114/42
f 18/127/55 28/143/70 27/128/56
f 62/130/58 58/144/25 57/131/27
f 32/133/60 52/94/22 51/96/24
f 36/134/61 26/141/68 25/135/62
f 14/136/63 40/79/7 39/81/9
f 44/137/64 46/100/28 45/102/30
f 66/138/65 64/119/47 63/121/49
f 68/139/66 62/130/58 61/132/59
f 22/140/67 48/123/51 47/124/52
f 26/141/68 18/127/55 17/129/57
f 60/142/69 10/103/31 9/105/33
f 27/128/56 28/143/70 24/125/53
